<?xml version="1.0" encoding="UTF-8"?>
<svg width="278px" height="43px" viewBox="0 0 278 43" version="1.1" xmlns="http://www.w3.org/2000/svg" xmlns:xlink="http://www.w3.org/1999/xlink">
    <title>svg-ecommerce</title>
    <g id="Page-1" stroke="none" stroke-width="1" fill="none" fill-rule="evenodd">
        <text id="ECOMMERCE-POC" font-family="MarkerFelt-Thin, Marker Felt" font-size="44" font-weight="300" fill="#FFFFFF">
            <tspan x="-2" y="41">ECOMMERCE </tspan>
            <tspan x="-2" y="89">POC</tspan>
        </text>
        <g id="React-icon" transform="translate(233.000000, 0.000000)" fill="#FFFFFF" fill-rule="nonzero">
            <path d="M45,21.504921 C45,18.3062486 41.2668161,15.2748913 35.5432124,13.3950561 C36.864044,7.13550011 36.2770077,2.15541314 33.6903791,0.56099794 C33.0941704,0.186999313 32.3970648,0.00984206912 31.6357521,0.00984206912 L31.6357521,2.20462348 C32.0576845,2.20462348 32.3970648,2.29320211 32.6814105,2.46051728 C33.9288626,3.22819867 34.4700367,6.1512932 34.0481044,9.91096361 C33.9472075,10.8361181 33.7821035,11.8104829 33.5803098,12.8045319 C31.7825112,12.3321126 29.8196086,11.9679561 27.7558092,11.7317464 C26.5175296,9.91096361 25.2333877,8.25749599 23.9400734,6.81071183 C26.9302894,3.82856489 29.7370567,2.19478141 31.6449246,2.19478141 L31.6449246,0 C31.6449246,0 31.6449246,0 31.6449246,0 C29.1225031,0 25.820424,1.92904555 22.4816551,5.27534905 C19.1428863,1.94872969 15.8408072,0.0393682765 13.3183857,0.0393682765 L13.3183857,2.23414969 C15.2170811,2.23414969 18.0330208,3.8580911 21.0232369,6.8205539 C19.739095,8.26733806 18.4549531,9.91096361 17.2350183,11.7317464 C15.1620465,11.9679561 13.1991439,12.3321126 11.4013453,12.814374 C11.1903791,11.8301671 11.0344476,10.8754864 10.9243783,9.96017395 C10.4932735,6.20050355 11.0252752,3.27740902 12.2635548,2.49988556 C12.5387281,2.32272831 12.8964533,2.24399176 13.3183857,2.24399176 L13.3183857,0.0492103456 C13.3183857,0.0492103456 13.3183857,0.0492103456 13.3183857,0.0492103456 C12.5479005,0.0492103456 11.8507949,0.22636759 11.2454138,0.600366217 C8.6679576,2.19478141 8.09009376,7.16502632 9.42009784,13.4048981 C3.71483897,15.2945754 0,18.3160906 0,21.504921 C0,24.7035935 3.73318386,27.7349508 9.45678761,29.614786 C8.13595597,35.874342 8.72299225,40.8544289 11.3096209,42.4488441 C11.9058296,42.8228428 12.6029352,43 13.3734203,43 C15.8958418,43 19.1979209,41.0709545 22.5366898,37.7246509 C25.8754586,41.0512703 29.1775377,42.9606317 31.6999592,42.9606317 C32.4704444,42.9606317 33.1675499,42.7834745 33.7729311,42.4094759 C36.3503873,40.8150607 36.9282511,35.8448157 35.598247,29.6049439 C41.285161,27.7251087 45,24.6937514 45,21.504921 Z M33.0574806,14.9402609 C32.7181003,16.2098878 32.296168,17.518883 31.819201,18.8278782 C31.4431309,18.0405127 31.0487159,17.2531472 30.6176111,16.4657816 C30.1956788,15.6784161 29.7462291,14.9107347 29.2967795,14.1627375 C30.5992662,14.3694209 31.8558907,14.6253147 33.0574806,14.9402609 Z M28.8565022,25.4220645 C28.1410518,26.7507439 27.4072564,28.0105287 26.6459437,29.181735 C25.2792499,29.3096818 23.8942112,29.3785763 22.5,29.3785763 C21.1149613,29.3785763 19.7299225,29.3096818 18.3724011,29.191577 C17.6110885,28.0203708 16.8681207,26.770428 16.1526702,25.4515908 C15.4555646,24.1622797 14.8226661,22.8532845 14.2448023,21.5344472 C14.8134937,20.21561 15.4555646,18.8967727 16.1434978,17.6074617 C16.8589482,16.2787823 17.5927436,15.0189975 18.3540563,13.8477913 C19.7207501,13.7198444 21.1057888,13.6509499 22.5,13.6509499 C23.8850387,13.6509499 25.2700775,13.7198444 26.6275989,13.8379492 C27.3889115,15.0091554 28.1318793,16.2590982 28.8473298,17.5779355 C29.5444354,18.8672465 30.1773339,20.1762417 30.7551977,21.495079 C30.1773339,22.8139162 29.5444354,24.1327535 28.8565022,25.4220645 Z M31.819201,24.1425956 C32.3145128,25.4614328 32.7364452,26.7802701 33.084998,28.0597391 C31.8834081,28.3746853 30.6176111,28.6404211 29.3059519,28.8471046 C29.7554015,28.0892653 30.2048512,27.3117418 30.6267835,26.5145342 C31.0487159,25.7271687 31.4431309,24.9299611 31.819201,24.1425956 Z M22.5183449,34.6440833 C21.6653078,33.6992447 20.8122707,32.6461433 19.968406,31.4946212 C20.7939258,31.5339895 21.6377905,31.5635157 22.4908276,31.5635157 C23.3530371,31.5635157 24.2060742,31.5438315 25.0407664,31.4946212 C24.2152466,32.6461433 23.3622095,33.6992447 22.5183449,34.6440833 Z M15.6940481,28.8471046 C14.3915614,28.6404211 13.1349368,28.3845274 11.9333469,28.0695811 C12.2727273,26.7999542 12.6946596,25.490959 13.1716266,24.1819638 C13.5476967,24.9693294 13.9421117,25.7566949 14.3732165,26.5440604 C14.8043212,27.331426 15.2445985,28.0991073 15.6940481,28.8471046 Z M22.4724827,8.36575875 C23.3255198,9.31059739 24.1785569,10.3636988 25.0224215,11.5152209 C24.1969018,11.4758526 23.3530371,11.4463264 22.5,11.4463264 C21.6377905,11.4463264 20.7847534,11.4660105 19.9500611,11.5152209 C20.7755809,10.3636988 21.628618,9.31059739 22.4724827,8.36575875 Z M15.6848757,14.1627375 C15.235426,14.9205768 14.7859764,15.6981003 14.364044,16.4953079 C13.9421117,17.2826734 13.5476967,18.0700389 13.1716266,18.8574044 C12.6763147,17.5385672 12.2543824,16.2197299 11.9058296,14.9402609 C13.1074195,14.6351568 14.3732165,14.3694209 15.6848757,14.1627375 Z M7.38381574,26.485008 C4.1367713,24.9988556 2.0362821,23.0501259 2.0362821,21.504921 C2.0362821,19.9597162 4.1367713,18.0011444 7.38381574,16.5248341 C8.17264574,16.1606775 9.03485528,15.8358892 9.92458214,15.5307851 C10.4474113,17.4598306 11.1353445,19.4676127 11.9883816,21.5246052 C11.1445169,23.5717556 10.4657562,25.5696956 9.95209947,27.4888991 C9.04402772,27.1837949 8.18181818,26.8491646 7.38381574,26.485008 Z M12.3185895,40.5493248 C11.0711374,39.7816434 10.5299633,36.8585489 10.9518956,33.0988785 C11.0527925,32.173724 11.2178965,31.1993591 11.4196902,30.2053101 C13.2174888,30.6777295 15.1803914,31.041886 17.2441908,31.2780957 C18.4824704,33.0988785 19.7666123,34.7523461 21.0599266,36.1991302 C18.0697106,39.1812772 15.2629433,40.8150607 13.3550754,40.8150607 C12.9423155,40.8052186 12.5937627,40.71664 12.3185895,40.5493248 Z M34.0756217,33.0496681 C34.5067265,36.8093385 33.9747248,39.7324331 32.7364452,40.5099565 C32.4612719,40.6871138 32.1035467,40.7658503 31.6816143,40.7658503 C29.7829189,40.7658503 26.9669792,39.1419089 23.9767631,36.1794461 C25.260905,34.7326619 26.5450469,33.0890364 27.7649817,31.2682536 C29.8379535,31.0320439 31.8008561,30.6678874 33.5986547,30.185626 C33.8096209,31.179675 33.9747248,32.1343557 34.0756217,33.0496681 Z M37.6070118,26.485008 C36.8181818,26.8491646 35.9559723,27.1739528 35.0662454,27.479057 C34.5434162,25.5500114 33.8554831,23.5422293 33.002446,21.4852369 C33.8463106,19.4380865 34.5250713,17.4401465 35.0387281,15.520943 C35.9467998,15.8260472 36.8090094,16.1606775 37.6161843,16.5248341 C40.8632287,18.0109865 42.9637179,19.9597162 42.9637179,21.504921 C42.9545455,23.0501259 40.8540563,25.0086976 37.6070118,26.485008 Z" id="Shape"></path>
            <ellipse id="Oval" cx="23" cy="21.5" rx="4" ry="4.5"></ellipse>
        </g>
    </g>
</svg>